HIERARCHY
ROOT Hips
{
	OFFSET 0.00 0.00 0.00
	CHANNELS 6 Xposition Yposition Zposition Xrotation Yrotation Zrotation
	JOINT Spine
	{
		OFFSET 0.00000 4.88528 0.00000
		CHANNELS 3 Xrotation Yrotation Zrotation
		JOINT Head
		{
			OFFSET 0.00000 16.49416 0.00000
			CHANNELS 3 Xrotation Yrotation Zrotation
			End Site
			{
				OFFSET 0.00000 4.52755 0.00000
			}
		}
		JOINT LeftShoulder
		{
			OFFSET 0.00000 10.66345 0.00000
			CHANNELS 3 Xrotation Yrotation Zrotation
			JOINT LeftArm
			{
				OFFSET 7.53191 0.00000 0.00000
				CHANNELS 3 Xrotation Yrotation Zrotation
				JOINT LeftForeArm
				{
					OFFSET 10.22920 0.00000 0.00000
					CHANNELS 3 Yrotation Zrotation Xrotation
					JOINT LeftHand
					{
						OFFSET 8.67349 0.00000 0.00000
						CHANNELS 3 Xrotation Yrotation Zrotation
						JOINT LeftHandThumb1
						{
							OFFSET 0.00000 0.00000 0.00000
							CHANNELS 3 Xrotation Zrotation Yrotation
							End Site
							{
								OFFSET 0.00000 0.00000 3.93700
							}
						}
						End Site
						{
							OFFSET 3.93700 0.00000 0.00000
						}
					}
				}
			}
		}
		JOINT RightShoulder
		{
			OFFSET 0.00000 10.66345 0.00000
			CHANNELS 3 Xrotation Yrotation Zrotation
			JOINT RightArm
			{
				OFFSET -7.53191 0.00000 0.00000
				CHANNELS 3 Xrotation Yrotation Zrotation
				JOINT RightForeArm
				{
					OFFSET -10.22920 0.00000 0.00000
					CHANNELS 3 Yrotation Zrotation Xrotation
					JOINT RightHand
					{
						OFFSET -8.67349 0.00000 0.00000
						CHANNELS 3 Xrotation Yrotation Zrotation
						JOINT RightHandThumb1
						{
							OFFSET 0.00000 0.00000 0.00000
							CHANNELS 3 Xrotation Zrotation Yrotation
							End Site
							{
								OFFSET 0.00000 0.00000 3.93700
							}
						}
						End Site
						{
							OFFSET -3.93700 0.00000 0.00000
						}
					}
				}
			}
		}
	}
	JOINT LeftUpLeg
	{
		OFFSET 2.67219 0.00000 0.00000
		CHANNELS 3 Xrotation Yrotation Zrotation
		JOINT LeftLeg
		{
			OFFSET 0.00000 -16.26339 0.00000
			CHANNELS 3 Xrotation Yrotation Zrotation
			JOINT LeftFoot
			{
				OFFSET 0.00000 -14.32816 0.00000
				CHANNELS 3 Xrotation Yrotation Zrotation
				JOINT LeftToeBase
				{
					OFFSET 0.00000 -1.30219 4.85985
					CHANNELS 3 Xrotation Yrotation Zrotation
					End Site
					{
						OFFSET 0.00000 0.00000 2.95275
					}
				}
			}
		}
	}
	JOINT RightUpLeg
	{
		OFFSET -2.67219 0.00000 0.00000
		CHANNELS 3 Xrotation Yrotation Zrotation
		JOINT RightLeg
		{
			OFFSET 0.00000 -16.26339 0.00000
			CHANNELS 3 Xrotation Yrotation Zrotation
			JOINT RightFoot
			{
				OFFSET 0.00000 -14.32816 0.00000
				CHANNELS 3 Xrotation Yrotation Zrotation
				JOINT RightToeBase
				{
					OFFSET 0.00000 -1.30219 4.85985
					CHANNELS 3 Xrotation Yrotation Zrotation
					End Site
					{
						OFFSET 0.00000 0.00000 2.95275
					}
				}
			}
		}
	}
}
MOTION
Frames: 11
Frame Time: 0.008333
 -17.3277 31.9679 9.4390 94.6316 -47.6084 97.7839 1.6073 -4.6494 -2.0045 -43.3365 -2.9056 5.1154 17.7525 11.3344 32.4053 -95.3711 -54.4798 -86.7195 -9.5336 0.0000 25.8396 0.1177 0.3754 -17.4039 33.1476 -0.0000 26.2537 -18.2693 16.9222 -28.7691 -40.0082 30.6559 85.1222 23.9579 0.0000 23.2051 -0.6131 3.0185 11.4871 32.8623 0.0000 -24.3270 -66.6866 -1.0728 -3.5538 23.0811 -0.0000 0.0000 3.9274 14.0755 -8.7798 -15.9174 -0.0000 -0.0000 -69.0854 2.5617 2.8691 24.5017 -0.0000 0.0000 7.3513 -9.1411 -10.6599 -23.0514 0.0000 0.0000
 -17.1700 31.8135 9.4599 94.2368 -46.7467 97.6566 1.7377 -4.6555 -2.1729 -44.8273 -3.0287 4.9687 18.6747 10.8287 31.3284 -94.1381 -55.8318 -88.6177 -9.1707 0.0000 26.1838 -0.0290 -0.0961 -16.8154 33.1476 -0.0000 26.2537 -16.9596 15.7142 -27.5973 -38.9084 31.8437 85.7956 23.5063 0.0000 23.4297 -0.6478 3.1251 11.7170 32.8623 0.0000 -24.3270 -68.6892 -0.7384 -3.7426 24.7361 0.0000 0.0000 3.3252 13.9130 -8.7954 -16.0201 0.0000 0.0000 -71.1790 2.5025 2.6641 26.3327 -0.0000 0.0000 6.7858 -8.8645 -10.8155 -23.5855 -0.0000 0.0000
 -17.0169 31.6541 9.4678 93.9991 -45.8987 97.6039 1.8904 -4.6068 -2.3368 -46.3096 -3.1115 4.8835 19.6409 10.4161 30.2046 -92.9334 -56.9736 -90.4689 -8.7667 0.0000 26.2446 -0.1562 -0.5247 -16.5771 33.1476 -0.0000 26.2537 -15.6961 14.4869 -26.3630 -37.7515 33.0870 86.4253 23.1047 -0.0000 23.6007 -0.6266 2.9284 12.0832 32.8623 0.0000 -24.3270 -70.7061 -0.3279 -3.7540 26.5066 0.0000 -0.0000 2.6981 13.5787 -8.8681 -16.2031 -0.0000 -0.0000 -73.2448 2.6130 2.6170 28.1978 -0.0000 -0.0000 6.0379 -8.6420 -10.5569 -23.0998 0.0000 0.0000
 -16.8635 31.4927 9.4814 93.6372 -44.9787 97.4763 1.9167 -4.6581 -2.4609 -47.7249 -3.1152 4.7097 20.6991 10.0145 28.9901 -91.5440 -57.8402 -92.1366 -8.3596 0.0000 26.2383 -0.2870 -0.9522 -16.7720 33.1476 -0.0000 26.2537 -14.3174 13.2722 -25.2077 -36.6062 34.4471 86.9696 22.6714 -0.0000 23.7042 -0.6356 2.9389 12.2089 32.8623 0.0000 -24.3270 -72.8229 -0.0638 -3.8482 28.2326 -0.0000 -0.0000 2.2038 13.3334 -9.2739 -16.2080 0.0000 0.0000 -75.4267 2.7153 2.4771 30.0747 -0.0000 0.0000 5.5524 -8.3271 -10.5430 -23.4577 0.0000 0.0000
 -16.7197 31.3223 9.4825 93.3937 -44.1919 97.3756 2.0743 -4.6555 -2.5428 -49.1153 -3.0972 4.5751 21.6768 9.5665 27.7382 -89.8331 -58.3217 -93.5278 -8.0405 0.0000 26.6370 -0.4339 -1.4671 -16.4783 33.1476 -0.0000 26.2537 -12.8888 12.0220 -24.0615 -35.5055 35.7945 87.5022 22.2018 -0.0000 23.9090 -0.6150 2.9468 11.7946 32.8623 0.0000 -24.3270 -74.8402 0.1406 -3.8232 30.0750 0.0000 -0.0000 1.6151 13.0558 -9.7361 -15.9602 -0.0000 -0.0000 -77.4071 2.8978 2.4805 31.7983 0.0000 -0.0000 5.3620 -8.1010 -11.1654 -24.5506 0.0000 -0.0000
 -16.5725 31.1454 9.4778 93.0432 -43.2525 97.0396 2.0112 -4.7717 -2.4121 -50.4055 -3.0543 4.4231 22.8097 9.2836 26.3971 -88.0790 -58.5855 -94.7771 -7.7707 0.0000 26.8966 -0.5881 -2.0661 -15.8924 33.1476 -0.0000 26.2537 -11.6182 10.8988 -22.9834 -34.2404 37.1315 88.0785 21.6247 -0.0000 24.1840 -0.6817 3.3660 11.4552 32.8623 0.0000 -24.3270 -77.0496 0.1101 -3.8008 31.9293 0.0000 -0.0000 1.1331 12.7097 -10.2303 -16.0770 0.0000 -0.0000 -79.5336 2.9564 2.4822 33.4633 -0.0000 0.0000 4.9662 -7.9864 -11.0988 -24.7544 0.0000 0.0000
 -16.4429 30.9641 9.4817 92.8012 -42.5260 97.0584 2.1489 -4.8778 -2.6197 -51.7388 -3.0606 4.3771 23.6918 8.9439 25.0605 -85.9264 -58.7930 -95.8209 -7.5047 0.0000 27.5431 -0.7174 -2.5907 -15.4844 33.1476 -0.0000 26.2537 -10.3065 9.7010 -21.8271 -33.1006 38.4441 88.6370 20.9964 -0.0000 24.4066 -0.7157 3.5827 11.3041 32.8623 0.0000 -24.3270 -78.8687 0.1720 -3.8467 33.5341 0.0000 -0.0000 0.5814 12.4465 -10.6447 -16.3143 0.0000 0.0000 -81.4353 3.1051 2.4307 35.1266 -0.0000 0.0000 4.4594 -7.8675 -10.9956 -24.4676 0.0000 -0.0000
 -16.3045 30.7825 9.4735 92.6496 -41.7370 96.8323 2.2411 -4.9500 -2.4504 -53.0714 -3.0322 4.3013 24.6722 8.7562 23.5769 -83.9540 -59.2287 -96.8221 -7.1867 0.0000 28.0780 -0.8605 -3.1724 -15.1842 33.1476 -0.0000 26.2537 -8.9587 8.5444 -20.7909 -32.0082 39.7311 89.1678 20.4333 -0.0000 24.5422 -0.8071 4.0811 11.1970 32.8623 0.0000 -24.3270 -80.8783 0.0449 -3.7340 35.3240 0.0000 -0.0000 0.0929 12.1010 -10.8422 -16.3950 0.0000 -0.0000 -83.1746 3.1213 2.5641 36.3578 -0.0000 0.0000 3.8803 -7.9977 -10.6941 -24.0532 -0.0000 0.0000
 -16.1650 30.5940 9.4681 92.3291 -40.9162 96.4651 2.2032 -5.2257 -2.2214 -54.2862 -2.9939 4.2481 25.7565 8.7975 21.9254 -82.5812 -59.7274 -98.1392 -6.4655 0.0000 28.6508 -1.0545 -3.9341 -15.0176 33.1476 -0.0000 26.2537 -7.7672 7.5599 -19.8490 -30.7186 40.8916 89.7184 20.0255 -0.0000 24.8935 -0.8662 4.1853 11.7036 32.8623 0.0000 -24.3270 -82.8555 -0.0944 -3.7702 36.9037 0.0000 -0.0000 -0.3864 11.8100 -10.9221 -16.4246 0.0000 0.0000 -84.9973 2.8988 2.5081 37.7143 -0.0000 0.0000 2.9681 -8.1438 -9.9101 -22.6711 -0.0000 0.0000
 -16.0268 30.4081 9.4609 92.0405 -40.0894 96.1964 2.1128 -5.4941 -2.0969 -55.4974 -3.0674 4.2293 27.0736 9.0835 20.1324 -82.0110 -60.4973 -99.7974 -5.3234 0.0000 28.9066 -1.2853 -4.9463 -14.5860 33.1476 -0.0000 26.2537 -7.1972 6.8127 -18.9201 -28.8404 41.9449 90.3322 19.6479 -0.0000 25.2573 -0.9139 4.2015 12.2837 32.8623 0.0000 -24.3270 -84.6988 -0.4162 -3.8980 38.2309 -0.0000 0.0000 -0.9368 11.8291 -11.0609 -16.2749 0.0000 0.0000 -86.7107 2.6567 2.4199 38.8515 -0.0000 0.0000 2.3283 -8.1609 -9.9087 -22.3182 -0.0000 -0.0000
 -15.8900 30.2247 9.4537 91.8097 -39.3422 96.0589 2.0728 -5.7591 -2.1086 -56.7690 -3.1828 4.2870 28.1325 9.3969 18.4467 -81.3178 -60.6836 -101.4923 -3.9468 0.0000 29.4233 -1.5256 -5.8067 -14.7482 33.1476 -0.0000 26.2537 -6.2642 5.9818 -18.0465 -27.3445 42.7048 90.8897 19.3710 -0.0000 25.3823 -0.9714 4.3067 12.7235 32.8623 0.0000 -24.3270 -86.3386 -0.5104 -4.0225 39.3853 0.0000 -0.0000 -1.5063 11.8439 -10.7520 -16.4898 0.0000 0.0000 -88.2676 2.4927 2.3089 39.9150 -0.0000 0.0000 1.1469 -8.0534 -8.9897 -20.1721 0.0000 0.0000
